<svg id="noun_Mail_4405254" xmlns="http://www.w3.org/2000/svg" width="22" height="22" viewBox="0 0 22 22">
  <g id="Ellipse_637" data-name="Ellipse 637" fill="#fff" stroke="#fff" stroke-width="1">
    <circle cx="11" cy="11" r="11" stroke="none"/>
    <circle cx="11" cy="11" r="10.5" fill="none"/>
  </g>
  <g id="Group_521" data-name="Group 521" transform="translate(4 6)">
    <path id="Path_3515" data-name="Path 3515" d="M15.936,5.711A1.537,1.537,0,0,0,15.3,5.58H4.29a1.537,1.537,0,0,0-.638.131,1.453,1.453,0,0,0-.749.683,1.3,1.3,0,0,0-.143.586v7.292a1.471,1.471,0,0,0,1.53,1.4H15.3a1.471,1.471,0,0,0,1.53-1.4V6.979a1.3,1.3,0,0,0-.143-.586A1.453,1.453,0,0,0,15.936,5.711Zm-1.2.838L10.081,9.812a.5.5,0,0,1-.574,0L4.853,6.548Zm1.031,7.723a.449.449,0,0,1-.468.431H4.29a.449.449,0,0,1-.468-.431V7.052l5.037,3.53a1.65,1.65,0,0,0,1.87,0l5.037-3.53Z" transform="translate(-2.76 -5.58)" fill="#3b3938" stroke="#3b3938" stroke-width="0.25"/>
  </g>
</svg>
