<svg id="Group_1850" data-name="Group 1850" xmlns="http://www.w3.org/2000/svg" width="22" height="22" viewBox="0 0 22 22">
  <g id="Ellipse_636" data-name="Ellipse 636" fill="#fff" stroke="#fff" stroke-width="1.5">
    <circle cx="11" cy="11" r="11" stroke="none"/>
    <circle cx="11" cy="11" r="10.25" fill="none"/>
  </g>
  <g id="Group_1841" data-name="Group 1841" transform="translate(-1286.366 -12.051)">
    <path id="Path_8263" data-name="Path 8263" d="M232.2,365.7a.324.324,0,0,0,.221.414,6.785,6.785,0,0,0,2.2.369,6.886,6.886,0,0,0,2.1-.335.328.328,0,0,0,.221-.414.323.323,0,0,0-.409-.224,6.294,6.294,0,0,1-1.911.3,6.181,6.181,0,0,1-2-.335.335.335,0,0,0-.42.224Z" transform="translate(1062.793 -340.691)" fill="#3b3938" stroke="#3b3938" stroke-width="0.5"/>
    <path id="Path_8264" data-name="Path 8264" d="M161.539,28.3v2.088a2.646,2.646,0,0,1-.615,1.7l-.572.715a.357.357,0,0,0-.057.1.4.4,0,0,0-.129.315c0,.915,1.473,1.458,3.217,1.673a1.769,1.769,0,0,0,1.773,1.759,1.791,1.791,0,0,0,1.787-1.759c1.744-.215,3.217-.744,3.217-1.659a.433.433,0,0,0-.143-.315.231.231,0,0,0-.057-.1l-.572-.715a2.646,2.646,0,0,1-.615-1.7V28.3a3.543,3.543,0,0,0-2.188-3.26c0-.029.014-.057.014-.086a1.43,1.43,0,0,0-2.86,0,.182.182,0,0,0,.014.086,3.525,3.525,0,0,0-2.216,3.26Zm3.617,7.492a.941.941,0,0,1-.929-.815c.3.014.615.029.929.029s.615-.014.929-.029A.941.941,0,0,1,165.157,35.79Zm0-11.41a.567.567,0,0,1,.543.429c-.143-.014-.3-.029-.443-.029a.359.359,0,0,1-.2,0,4.31,4.31,0,0,0-.443.029A.566.566,0,0,1,165.157,24.379Zm-.1,1.258a.359.359,0,0,1,.2,0,2.664,2.664,0,0,1,2.66,2.66v2.088a3.5,3.5,0,0,0,.815,2.245l.529.672c-.257.286-1.616.844-4.1.844s-3.846-.558-4.1-.844l.529-.658A3.5,3.5,0,0,0,162.4,30.4V28.3a2.654,2.654,0,0,1,2.66-2.66Z" transform="translate(1132.199 -7.471)" fill="#3b3938" stroke="#3b3938" stroke-width="0.5"/>
  </g>
</svg>
