<svg xmlns="http://www.w3.org/2000/svg" width="22.058" height="22.089" viewBox="0 0 22.058 22.089">
  <path id="Path_4601" data-name="Path 4601" d="M209.359,137.78l-4.117-4.08a9.948,9.948,0,0,0-.735-13.195,9.915,9.915,0,0,0-14,14.04,9.909,9.909,0,0,0,13.195.735l4.08,4.08a1.058,1.058,0,0,0,.772.331,1,1,0,0,0,.772-.331,1.144,1.144,0,0,0,.037-1.581Zm-4.117-10.255a7.558,7.558,0,0,1-2.279,5.44,7.774,7.774,0,0,1-5.44,2.279,7.558,7.558,0,0,1-5.44-2.279,7.773,7.773,0,0,1-2.279-5.44,7.558,7.558,0,0,1,2.279-5.44,7.708,7.708,0,0,1,5.44-2.279,7.558,7.558,0,0,1,5.44,2.279A7.709,7.709,0,0,1,205.242,127.526Z" transform="translate(-187.6 -117.602)" fill="#fff"/>
</svg>
